<svg width="24" height="24" viewBox="0 0 24 24" fill="none" xmlns="http://www.w3.org/2000/svg">
<path d="M12 5.90625C13.1719 5.90625 14.1094 6.84375 14.1094 8.01562C14.1094 9.14062 13.1719 10.0781 12 10.0781C10.8281 10.0781 9.89062 9.14062 9.89062 8.01562C9.89062 6.84375 10.8281 5.90625 12 5.90625ZM12 14.9062C14.9531 14.9062 18.0938 16.3594 18.0938 17.0156V18.0938H5.90625V17.0156C5.90625 16.3594 9.04688 14.9062 12 14.9062ZM12 3.98438C9.79688 3.98438 8.01562 5.8125 8.01562 8.01562C8.01562 10.2188 9.79688 12 12 12C14.2031 12 15.9844 10.2188 15.9844 8.01562C15.9844 5.8125 14.2031 3.98438 12 3.98438ZM12 12.9844C9.32812 12.9844 3.98438 14.3438 3.98438 17.0156V20.0156H20.0156V17.0156C20.0156 14.3438 14.6719 12.9844 12 12.9844Z" fill="#94A3B8"/>
</svg>
